<?xml version="1.0" encoding="utf-8" standalone="no"?>
<!DOCTYPE svg PUBLIC "-//W3C//DTD SVG 1.1//EN"
  "http://www.w3.org/Graphics/SVG/1.1/DTD/svg11.dtd">
<svg height="476.64pt" version="1.1" viewBox="0 0 954.72 476.64" width="954.72pt" xmlns="http://www.w3.org/2000/svg" xmlns:xlink="http://www.w3.org/1999/xlink">
 <metadata>
  <rdf:RDF xmlns:cc="http://creativecommons.org/ns#" xmlns:dc="http://purl.org/dc/elements/1.1/" xmlns:rdf="http://www.w3.org/1999/02/22-rdf-syntax-ns#">
   <cc:Work>
    <dc:type rdf:resource="http://purl.org/dc/dcmitype/StillImage"/>
    <dc:date>2021-11-09T17:23:45.813031</dc:date>
    <dc:format>image/svg+xml</dc:format>
    <dc:creator>
     <cc:Agent>
      <dc:title>Matplotlib v3.4.3, https://matplotlib.org/</dc:title>
     </cc:Agent>
    </dc:creator>
   </cc:Work>
  </rdf:RDF>
 </metadata>
 <defs>
  <style type="text/css">*{stroke-linecap:butt;stroke-linejoin:round;}</style>
 </defs>
 <g id="figure_1">
  <g id="patch_1">
   <path d="M 0 476.64 
L 954.72 476.64 
L 954.72 0 
L 0 0 
z
" style="fill:#ffffff;"/>
  </g>
  <g id="patch_2">
   <path d="M 305.7876 424.2096 
L 672.8004 424.2096 
L 672.8004 57.1968 
L 305.7876 57.1968 
z
" style="fill:#ffffff;"/>
  </g>
  <g id="pane3d_1">
   <g id="patch_3">
    <path d="M 537.476286 231.78842 
L 332.944492 290.831664 
L 332.944492 137.432818 
L 537.476286 78.389574 
" style="fill:none;opacity:0;"/>
   </g>
  </g>
  <g id="pane3d_2">
   <g id="patch_4">
    <path d="M 655.562773 334.054318 
L 537.476286 231.78842 
L 537.476286 78.389574 
L 655.562773 180.655472 
" style="fill:none;opacity:0;"/>
   </g>
  </g>
  <g id="pane3d_3">
   <g id="patch_5">
    <path d="M 655.562773 334.054318 
L 537.476286 231.78842 
L 332.944492 290.831664 
L 451.030978 393.097561 
" style="fill:none;opacity:0;"/>
   </g>
  </g>
  <g id="axis3d_1">
   <g id="line2d_1">
    <path d="M 332.944492 290.831664 
L 451.030978 393.097561 
" style="fill:none;stroke:#000000;stroke-linecap:square;stroke-width:0.8;"/>
   </g>
   <g id="text_1">
    <!-- Pressure [MPa] -->
    <g transform="translate(335.459747 347.610644)rotate(-319.106605)scale(0.1 -0.1)">
     <defs>
      <path d="M 1259 4147 
L 1259 2394 
L 2053 2394 
Q 2494 2394 2734 2622 
Q 2975 2850 2975 3272 
Q 2975 3691 2734 3919 
Q 2494 4147 2053 4147 
L 1259 4147 
z
M 628 4666 
L 2053 4666 
Q 2838 4666 3239 4311 
Q 3641 3956 3641 3272 
Q 3641 2581 3239 2228 
Q 2838 1875 2053 1875 
L 1259 1875 
L 1259 0 
L 628 0 
L 628 4666 
z
" id="DejaVuSans-50" transform="scale(0.015625)"/>
      <path d="M 2631 2963 
Q 2534 3019 2420 3045 
Q 2306 3072 2169 3072 
Q 1681 3072 1420 2755 
Q 1159 2438 1159 1844 
L 1159 0 
L 581 0 
L 581 3500 
L 1159 3500 
L 1159 2956 
Q 1341 3275 1631 3429 
Q 1922 3584 2338 3584 
Q 2397 3584 2469 3576 
Q 2541 3569 2628 3553 
L 2631 2963 
z
" id="DejaVuSans-72" transform="scale(0.015625)"/>
      <path d="M 3597 1894 
L 3597 1613 
L 953 1613 
Q 991 1019 1311 708 
Q 1631 397 2203 397 
Q 2534 397 2845 478 
Q 3156 559 3463 722 
L 3463 178 
Q 3153 47 2828 -22 
Q 2503 -91 2169 -91 
Q 1331 -91 842 396 
Q 353 884 353 1716 
Q 353 2575 817 3079 
Q 1281 3584 2069 3584 
Q 2775 3584 3186 3129 
Q 3597 2675 3597 1894 
z
M 3022 2063 
Q 3016 2534 2758 2815 
Q 2500 3097 2075 3097 
Q 1594 3097 1305 2825 
Q 1016 2553 972 2059 
L 3022 2063 
z
" id="DejaVuSans-65" transform="scale(0.015625)"/>
      <path d="M 2834 3397 
L 2834 2853 
Q 2591 2978 2328 3040 
Q 2066 3103 1784 3103 
Q 1356 3103 1142 2972 
Q 928 2841 928 2578 
Q 928 2378 1081 2264 
Q 1234 2150 1697 2047 
L 1894 2003 
Q 2506 1872 2764 1633 
Q 3022 1394 3022 966 
Q 3022 478 2636 193 
Q 2250 -91 1575 -91 
Q 1294 -91 989 -36 
Q 684 19 347 128 
L 347 722 
Q 666 556 975 473 
Q 1284 391 1588 391 
Q 1994 391 2212 530 
Q 2431 669 2431 922 
Q 2431 1156 2273 1281 
Q 2116 1406 1581 1522 
L 1381 1569 
Q 847 1681 609 1914 
Q 372 2147 372 2553 
Q 372 3047 722 3315 
Q 1072 3584 1716 3584 
Q 2034 3584 2315 3537 
Q 2597 3491 2834 3397 
z
" id="DejaVuSans-73" transform="scale(0.015625)"/>
      <path d="M 544 1381 
L 544 3500 
L 1119 3500 
L 1119 1403 
Q 1119 906 1312 657 
Q 1506 409 1894 409 
Q 2359 409 2629 706 
Q 2900 1003 2900 1516 
L 2900 3500 
L 3475 3500 
L 3475 0 
L 2900 0 
L 2900 538 
Q 2691 219 2414 64 
Q 2138 -91 1772 -91 
Q 1169 -91 856 284 
Q 544 659 544 1381 
z
M 1991 3584 
L 1991 3584 
z
" id="DejaVuSans-75" transform="scale(0.015625)"/>
      <path id="DejaVuSans-20" transform="scale(0.015625)"/>
      <path d="M 550 4863 
L 1875 4863 
L 1875 4416 
L 1125 4416 
L 1125 -397 
L 1875 -397 
L 1875 -844 
L 550 -844 
L 550 4863 
z
" id="DejaVuSans-5b" transform="scale(0.015625)"/>
      <path d="M 628 4666 
L 1569 4666 
L 2759 1491 
L 3956 4666 
L 4897 4666 
L 4897 0 
L 4281 0 
L 4281 4097 
L 3078 897 
L 2444 897 
L 1241 4097 
L 1241 0 
L 628 0 
L 628 4666 
z
" id="DejaVuSans-4d" transform="scale(0.015625)"/>
      <path d="M 2194 1759 
Q 1497 1759 1228 1600 
Q 959 1441 959 1056 
Q 959 750 1161 570 
Q 1363 391 1709 391 
Q 2188 391 2477 730 
Q 2766 1069 2766 1631 
L 2766 1759 
L 2194 1759 
z
M 3341 1997 
L 3341 0 
L 2766 0 
L 2766 531 
Q 2569 213 2275 61 
Q 1981 -91 1556 -91 
Q 1019 -91 701 211 
Q 384 513 384 1019 
Q 384 1609 779 1909 
Q 1175 2209 1959 2209 
L 2766 2209 
L 2766 2266 
Q 2766 2663 2505 2880 
Q 2244 3097 1772 3097 
Q 1472 3097 1187 3025 
Q 903 2953 641 2809 
L 641 3341 
Q 956 3463 1253 3523 
Q 1550 3584 1831 3584 
Q 2591 3584 2966 3190 
Q 3341 2797 3341 1997 
z
" id="DejaVuSans-61" transform="scale(0.015625)"/>
      <path d="M 1947 4863 
L 1947 -844 
L 622 -844 
L 622 -397 
L 1369 -397 
L 1369 4416 
L 622 4416 
L 622 4863 
L 1947 4863 
z
" id="DejaVuSans-5d" transform="scale(0.015625)"/>
     </defs>
     <use xlink:href="#DejaVuSans-50"/>
     <use x="58.552734" xlink:href="#DejaVuSans-72"/>
     <use x="97.416016" xlink:href="#DejaVuSans-65"/>
     <use x="158.939453" xlink:href="#DejaVuSans-73"/>
     <use x="211.039062" xlink:href="#DejaVuSans-73"/>
     <use x="263.138672" xlink:href="#DejaVuSans-75"/>
     <use x="326.517578" xlink:href="#DejaVuSans-72"/>
     <use x="365.380859" xlink:href="#DejaVuSans-65"/>
     <use x="426.904297" xlink:href="#DejaVuSans-20"/>
     <use x="458.691406" xlink:href="#DejaVuSans-5b"/>
     <use x="497.705078" xlink:href="#DejaVuSans-4d"/>
     <use x="583.984375" xlink:href="#DejaVuSans-50"/>
     <use x="639.787109" xlink:href="#DejaVuSans-61"/>
     <use x="701.066406" xlink:href="#DejaVuSans-5d"/>
    </g>
   </g>
   <g id="Line3DCollection_1">
    <path d="M 443.516384 386.589731 
L 648.048179 327.546488 
L 648.048179 174.147642 
" style="fill:none;stroke:#b0b0b0;stroke-width:0.8;"/>
    <path d="M 428.793913 373.839697 
L 633.325708 314.796454 
L 633.325708 161.397608 
" style="fill:none;stroke:#b0b0b0;stroke-width:0.8;"/>
    <path d="M 414.071442 361.089663 
L 618.603236 302.04642 
L 618.603236 148.647574 
" style="fill:none;stroke:#b0b0b0;stroke-width:0.8;"/>
    <path d="M 399.348971 348.339629 
L 603.880765 289.296386 
L 603.880765 135.89754 
" style="fill:none;stroke:#b0b0b0;stroke-width:0.8;"/>
    <path d="M 384.6265 335.589595 
L 589.158294 276.546352 
L 589.158294 123.147506 
" style="fill:none;stroke:#b0b0b0;stroke-width:0.8;"/>
    <path d="M 369.904028 322.839561 
L 574.435823 263.796318 
L 574.435823 110.397472 
" style="fill:none;stroke:#b0b0b0;stroke-width:0.8;"/>
    <path d="M 355.181557 310.089527 
L 559.713352 251.046284 
L 559.713352 97.647438 
" style="fill:none;stroke:#b0b0b0;stroke-width:0.8;"/>
    <path d="M 340.459086 297.339493 
L 544.990881 238.29625 
L 544.990881 84.897404 
" style="fill:none;stroke:#b0b0b0;stroke-width:0.8;"/>
   </g>
   <g id="xtick_1">
    <g id="line2d_2">
     <path d="M 445.152638 386.117385 
L 440.243875 387.534423 
" style="fill:none;stroke:#000000;stroke-linecap:square;stroke-width:0.8;"/>
    </g>
    <g id="text_2">
     <!-- 0.0 -->
     <g transform="translate(423.259904 406.96898)scale(0.1 -0.1)">
      <defs>
       <path d="M 2034 4250 
Q 1547 4250 1301 3770 
Q 1056 3291 1056 2328 
Q 1056 1369 1301 889 
Q 1547 409 2034 409 
Q 2525 409 2770 889 
Q 3016 1369 3016 2328 
Q 3016 3291 2770 3770 
Q 2525 4250 2034 4250 
z
M 2034 4750 
Q 2819 4750 3233 4129 
Q 3647 3509 3647 2328 
Q 3647 1150 3233 529 
Q 2819 -91 2034 -91 
Q 1250 -91 836 529 
Q 422 1150 422 2328 
Q 422 3509 836 4129 
Q 1250 4750 2034 4750 
z
" id="DejaVuSans-30" transform="scale(0.015625)"/>
       <path d="M 684 794 
L 1344 794 
L 1344 0 
L 684 0 
L 684 794 
z
" id="DejaVuSans-2e" transform="scale(0.015625)"/>
      </defs>
      <use xlink:href="#DejaVuSans-30"/>
      <use x="63.623047" xlink:href="#DejaVuSans-2e"/>
      <use x="95.410156" xlink:href="#DejaVuSans-30"/>
     </g>
    </g>
   </g>
   <g id="xtick_2">
    <g id="line2d_3">
     <path d="M 430.430167 373.367351 
L 425.521404 374.784389 
" style="fill:none;stroke:#000000;stroke-linecap:square;stroke-width:0.8;"/>
    </g>
    <g id="text_3">
     <!-- 0.1 -->
     <g transform="translate(408.537433 394.218946)scale(0.1 -0.1)">
      <defs>
       <path d="M 794 531 
L 1825 531 
L 1825 4091 
L 703 3866 
L 703 4441 
L 1819 4666 
L 2450 4666 
L 2450 531 
L 3481 531 
L 3481 0 
L 794 0 
L 794 531 
z
" id="DejaVuSans-31" transform="scale(0.015625)"/>
      </defs>
      <use xlink:href="#DejaVuSans-30"/>
      <use x="63.623047" xlink:href="#DejaVuSans-2e"/>
      <use x="95.410156" xlink:href="#DejaVuSans-31"/>
     </g>
    </g>
   </g>
   <g id="xtick_3">
    <g id="line2d_4">
     <path d="M 415.707696 360.617317 
L 410.798933 362.034355 
" style="fill:none;stroke:#000000;stroke-linecap:square;stroke-width:0.8;"/>
    </g>
    <g id="text_4">
     <!-- 0.2 -->
     <g transform="translate(393.814962 381.468912)scale(0.1 -0.1)">
      <defs>
       <path d="M 1228 531 
L 3431 531 
L 3431 0 
L 469 0 
L 469 531 
Q 828 903 1448 1529 
Q 2069 2156 2228 2338 
Q 2531 2678 2651 2914 
Q 2772 3150 2772 3378 
Q 2772 3750 2511 3984 
Q 2250 4219 1831 4219 
Q 1534 4219 1204 4116 
Q 875 4013 500 3803 
L 500 4441 
Q 881 4594 1212 4672 
Q 1544 4750 1819 4750 
Q 2544 4750 2975 4387 
Q 3406 4025 3406 3419 
Q 3406 3131 3298 2873 
Q 3191 2616 2906 2266 
Q 2828 2175 2409 1742 
Q 1991 1309 1228 531 
z
" id="DejaVuSans-32" transform="scale(0.015625)"/>
      </defs>
      <use xlink:href="#DejaVuSans-30"/>
      <use x="63.623047" xlink:href="#DejaVuSans-2e"/>
      <use x="95.410156" xlink:href="#DejaVuSans-32"/>
     </g>
    </g>
   </g>
   <g id="xtick_4">
    <g id="line2d_5">
     <path d="M 400.985225 347.867283 
L 396.076462 349.284321 
" style="fill:none;stroke:#000000;stroke-linecap:square;stroke-width:0.8;"/>
    </g>
    <g id="text_5">
     <!-- 0.3 -->
     <g transform="translate(379.092491 368.718878)scale(0.1 -0.1)">
      <defs>
       <path d="M 2597 2516 
Q 3050 2419 3304 2112 
Q 3559 1806 3559 1356 
Q 3559 666 3084 287 
Q 2609 -91 1734 -91 
Q 1441 -91 1130 -33 
Q 819 25 488 141 
L 488 750 
Q 750 597 1062 519 
Q 1375 441 1716 441 
Q 2309 441 2620 675 
Q 2931 909 2931 1356 
Q 2931 1769 2642 2001 
Q 2353 2234 1838 2234 
L 1294 2234 
L 1294 2753 
L 1863 2753 
Q 2328 2753 2575 2939 
Q 2822 3125 2822 3475 
Q 2822 3834 2567 4026 
Q 2313 4219 1838 4219 
Q 1578 4219 1281 4162 
Q 984 4106 628 3988 
L 628 4550 
Q 988 4650 1302 4700 
Q 1616 4750 1894 4750 
Q 2613 4750 3031 4423 
Q 3450 4097 3450 3541 
Q 3450 3153 3228 2886 
Q 3006 2619 2597 2516 
z
" id="DejaVuSans-33" transform="scale(0.015625)"/>
      </defs>
      <use xlink:href="#DejaVuSans-30"/>
      <use x="63.623047" xlink:href="#DejaVuSans-2e"/>
      <use x="95.410156" xlink:href="#DejaVuSans-33"/>
     </g>
    </g>
   </g>
   <g id="xtick_5">
    <g id="line2d_6">
     <path d="M 386.262754 335.117249 
L 381.353991 336.534287 
" style="fill:none;stroke:#000000;stroke-linecap:square;stroke-width:0.8;"/>
    </g>
    <g id="text_6">
     <!-- 0.4 -->
     <g transform="translate(364.37002 355.968844)scale(0.1 -0.1)">
      <defs>
       <path d="M 2419 4116 
L 825 1625 
L 2419 1625 
L 2419 4116 
z
M 2253 4666 
L 3047 4666 
L 3047 1625 
L 3713 1625 
L 3713 1100 
L 3047 1100 
L 3047 0 
L 2419 0 
L 2419 1100 
L 313 1100 
L 313 1709 
L 2253 4666 
z
" id="DejaVuSans-34" transform="scale(0.015625)"/>
      </defs>
      <use xlink:href="#DejaVuSans-30"/>
      <use x="63.623047" xlink:href="#DejaVuSans-2e"/>
      <use x="95.410156" xlink:href="#DejaVuSans-34"/>
     </g>
    </g>
   </g>
   <g id="xtick_6">
    <g id="line2d_7">
     <path d="M 371.540283 322.367215 
L 366.63152 323.784253 
" style="fill:none;stroke:#000000;stroke-linecap:square;stroke-width:0.8;"/>
    </g>
    <g id="text_7">
     <!-- 0.5 -->
     <g transform="translate(349.647549 343.21881)scale(0.1 -0.1)">
      <defs>
       <path d="M 691 4666 
L 3169 4666 
L 3169 4134 
L 1269 4134 
L 1269 2991 
Q 1406 3038 1543 3061 
Q 1681 3084 1819 3084 
Q 2600 3084 3056 2656 
Q 3513 2228 3513 1497 
Q 3513 744 3044 326 
Q 2575 -91 1722 -91 
Q 1428 -91 1123 -41 
Q 819 9 494 109 
L 494 744 
Q 775 591 1075 516 
Q 1375 441 1709 441 
Q 2250 441 2565 725 
Q 2881 1009 2881 1497 
Q 2881 1984 2565 2268 
Q 2250 2553 1709 2553 
Q 1456 2553 1204 2497 
Q 953 2441 691 2322 
L 691 4666 
z
" id="DejaVuSans-35" transform="scale(0.015625)"/>
      </defs>
      <use xlink:href="#DejaVuSans-30"/>
      <use x="63.623047" xlink:href="#DejaVuSans-2e"/>
      <use x="95.410156" xlink:href="#DejaVuSans-35"/>
     </g>
    </g>
   </g>
   <g id="xtick_7">
    <g id="line2d_8">
     <path d="M 356.817812 309.617181 
L 351.909049 311.034219 
" style="fill:none;stroke:#000000;stroke-linecap:square;stroke-width:0.8;"/>
    </g>
    <g id="text_8">
     <!-- 0.6 -->
     <g transform="translate(334.925078 330.468776)scale(0.1 -0.1)">
      <defs>
       <path d="M 2113 2584 
Q 1688 2584 1439 2293 
Q 1191 2003 1191 1497 
Q 1191 994 1439 701 
Q 1688 409 2113 409 
Q 2538 409 2786 701 
Q 3034 994 3034 1497 
Q 3034 2003 2786 2293 
Q 2538 2584 2113 2584 
z
M 3366 4563 
L 3366 3988 
Q 3128 4100 2886 4159 
Q 2644 4219 2406 4219 
Q 1781 4219 1451 3797 
Q 1122 3375 1075 2522 
Q 1259 2794 1537 2939 
Q 1816 3084 2150 3084 
Q 2853 3084 3261 2657 
Q 3669 2231 3669 1497 
Q 3669 778 3244 343 
Q 2819 -91 2113 -91 
Q 1303 -91 875 529 
Q 447 1150 447 2328 
Q 447 3434 972 4092 
Q 1497 4750 2381 4750 
Q 2619 4750 2861 4703 
Q 3103 4656 3366 4563 
z
" id="DejaVuSans-36" transform="scale(0.015625)"/>
      </defs>
      <use xlink:href="#DejaVuSans-30"/>
      <use x="63.623047" xlink:href="#DejaVuSans-2e"/>
      <use x="95.410156" xlink:href="#DejaVuSans-36"/>
     </g>
    </g>
   </g>
   <g id="xtick_8">
    <g id="line2d_9">
     <path d="M 342.095341 296.867147 
L 337.186578 298.284185 
" style="fill:none;stroke:#000000;stroke-linecap:square;stroke-width:0.8;"/>
    </g>
    <g id="text_9">
     <!-- 0.7 -->
     <g transform="translate(320.202607 317.718742)scale(0.1 -0.1)">
      <defs>
       <path d="M 525 4666 
L 3525 4666 
L 3525 4397 
L 1831 0 
L 1172 0 
L 2766 4134 
L 525 4134 
L 525 4666 
z
" id="DejaVuSans-37" transform="scale(0.015625)"/>
      </defs>
      <use xlink:href="#DejaVuSans-30"/>
      <use x="63.623047" xlink:href="#DejaVuSans-2e"/>
      <use x="95.410156" xlink:href="#DejaVuSans-37"/>
     </g>
    </g>
   </g>
  </g>
  <g id="axis3d_2">
   <g id="line2d_10">
    <path d="M 655.562773 334.054318 
L 451.030978 393.097561 
" style="fill:none;stroke:#000000;stroke-linecap:square;stroke-width:0.8;"/>
   </g>
   <g id="text_10">
    <!-- Load [N] -->
    <g transform="translate(549.111632 405.551741)rotate(-16.102114)scale(0.1 -0.1)">
     <defs>
      <path d="M 628 4666 
L 1259 4666 
L 1259 531 
L 3531 531 
L 3531 0 
L 628 0 
L 628 4666 
z
" id="DejaVuSans-4c" transform="scale(0.015625)"/>
      <path d="M 1959 3097 
Q 1497 3097 1228 2736 
Q 959 2375 959 1747 
Q 959 1119 1226 758 
Q 1494 397 1959 397 
Q 2419 397 2687 759 
Q 2956 1122 2956 1747 
Q 2956 2369 2687 2733 
Q 2419 3097 1959 3097 
z
M 1959 3584 
Q 2709 3584 3137 3096 
Q 3566 2609 3566 1747 
Q 3566 888 3137 398 
Q 2709 -91 1959 -91 
Q 1206 -91 779 398 
Q 353 888 353 1747 
Q 353 2609 779 3096 
Q 1206 3584 1959 3584 
z
" id="DejaVuSans-6f" transform="scale(0.015625)"/>
      <path d="M 2906 2969 
L 2906 4863 
L 3481 4863 
L 3481 0 
L 2906 0 
L 2906 525 
Q 2725 213 2448 61 
Q 2172 -91 1784 -91 
Q 1150 -91 751 415 
Q 353 922 353 1747 
Q 353 2572 751 3078 
Q 1150 3584 1784 3584 
Q 2172 3584 2448 3432 
Q 2725 3281 2906 2969 
z
M 947 1747 
Q 947 1113 1208 752 
Q 1469 391 1925 391 
Q 2381 391 2643 752 
Q 2906 1113 2906 1747 
Q 2906 2381 2643 2742 
Q 2381 3103 1925 3103 
Q 1469 3103 1208 2742 
Q 947 2381 947 1747 
z
" id="DejaVuSans-64" transform="scale(0.015625)"/>
      <path d="M 628 4666 
L 1478 4666 
L 3547 763 
L 3547 4666 
L 4159 4666 
L 4159 0 
L 3309 0 
L 1241 3903 
L 1241 0 
L 628 0 
L 628 4666 
z
" id="DejaVuSans-4e" transform="scale(0.015625)"/>
     </defs>
     <use xlink:href="#DejaVuSans-4c"/>
     <use x="53.962891" xlink:href="#DejaVuSans-6f"/>
     <use x="115.144531" xlink:href="#DejaVuSans-61"/>
     <use x="176.423828" xlink:href="#DejaVuSans-64"/>
     <use x="239.900391" xlink:href="#DejaVuSans-20"/>
     <use x="271.6875" xlink:href="#DejaVuSans-5b"/>
     <use x="310.701172" xlink:href="#DejaVuSans-4e"/>
     <use x="385.505859" xlink:href="#DejaVuSans-5d"/>
    </g>
   </g>
   <g id="Line3DCollection_2">
    <path d="M 524.460627 82.146871 
L 524.460627 235.545718 
L 642.547114 337.811615 
" style="fill:none;stroke:#b0b0b0;stroke-width:0.8;"/>
    <path d="M 502.148067 88.587953 
L 502.148067 241.986799 
L 620.234554 344.252696 
" style="fill:none;stroke:#b0b0b0;stroke-width:0.8;"/>
    <path d="M 479.835508 95.029034 
L 479.835508 248.42788 
L 597.921995 350.693777 
" style="fill:none;stroke:#b0b0b0;stroke-width:0.8;"/>
    <path d="M 457.522948 101.470115 
L 457.522948 254.868961 
L 575.609435 357.134858 
" style="fill:none;stroke:#b0b0b0;stroke-width:0.8;"/>
    <path d="M 435.210389 107.911196 
L 435.210389 261.310042 
L 553.296876 363.575939 
" style="fill:none;stroke:#b0b0b0;stroke-width:0.8;"/>
    <path d="M 412.89783 114.352277 
L 412.89783 267.751123 
L 530.984316 370.01702 
" style="fill:none;stroke:#b0b0b0;stroke-width:0.8;"/>
    <path d="M 390.58527 120.793358 
L 390.58527 274.192204 
L 508.671757 376.458101 
" style="fill:none;stroke:#b0b0b0;stroke-width:0.8;"/>
    <path d="M 368.272711 127.234439 
L 368.272711 280.633285 
L 486.359198 382.899183 
" style="fill:none;stroke:#b0b0b0;stroke-width:0.8;"/>
    <path d="M 345.960151 133.67552 
L 345.960151 287.074366 
L 464.046638 389.340264 
" style="fill:none;stroke:#b0b0b0;stroke-width:0.8;"/>
   </g>
   <g id="xtick_9">
    <g id="line2d_11">
     <path d="M 641.602422 336.993488 
L 644.436497 339.447869 
" style="fill:none;stroke:#000000;stroke-linecap:square;stroke-width:0.8;"/>
    </g>
    <g id="text_11">
     <!-- 5.0 -->
     <g transform="translate(641.699798 360.791199)scale(0.1 -0.1)">
      <use xlink:href="#DejaVuSans-35"/>
      <use x="63.623047" xlink:href="#DejaVuSans-2e"/>
      <use x="95.410156" xlink:href="#DejaVuSans-30"/>
     </g>
    </g>
   </g>
   <g id="xtick_10">
    <g id="line2d_12">
     <path d="M 619.289862 343.434569 
L 622.123938 345.88895 
" style="fill:none;stroke:#000000;stroke-linecap:square;stroke-width:0.8;"/>
    </g>
    <g id="text_12">
     <!-- 7.5 -->
     <g transform="translate(619.387239 367.23228)scale(0.1 -0.1)">
      <use xlink:href="#DejaVuSans-37"/>
      <use x="63.623047" xlink:href="#DejaVuSans-2e"/>
      <use x="95.410156" xlink:href="#DejaVuSans-35"/>
     </g>
    </g>
   </g>
   <g id="xtick_11">
    <g id="line2d_13">
     <path d="M 596.977303 349.87565 
L 599.811378 352.330031 
" style="fill:none;stroke:#000000;stroke-linecap:square;stroke-width:0.8;"/>
    </g>
    <g id="text_13">
     <!-- 10.0 -->
     <g transform="translate(593.893429 373.673361)scale(0.1 -0.1)">
      <use xlink:href="#DejaVuSans-31"/>
      <use x="63.623047" xlink:href="#DejaVuSans-30"/>
      <use x="127.246094" xlink:href="#DejaVuSans-2e"/>
      <use x="159.033203" xlink:href="#DejaVuSans-30"/>
     </g>
    </g>
   </g>
   <g id="xtick_12">
    <g id="line2d_14">
     <path d="M 574.664743 356.316731 
L 577.498819 358.771113 
" style="fill:none;stroke:#000000;stroke-linecap:square;stroke-width:0.8;"/>
    </g>
    <g id="text_14">
     <!-- 12.5 -->
     <g transform="translate(571.58087 380.114442)scale(0.1 -0.1)">
      <use xlink:href="#DejaVuSans-31"/>
      <use x="63.623047" xlink:href="#DejaVuSans-32"/>
      <use x="127.246094" xlink:href="#DejaVuSans-2e"/>
      <use x="159.033203" xlink:href="#DejaVuSans-35"/>
     </g>
    </g>
   </g>
   <g id="xtick_13">
    <g id="line2d_15">
     <path d="M 552.352184 362.757812 
L 555.18626 365.212194 
" style="fill:none;stroke:#000000;stroke-linecap:square;stroke-width:0.8;"/>
    </g>
    <g id="text_15">
     <!-- 15.0 -->
     <g transform="translate(549.26831 386.555523)scale(0.1 -0.1)">
      <use xlink:href="#DejaVuSans-31"/>
      <use x="63.623047" xlink:href="#DejaVuSans-35"/>
      <use x="127.246094" xlink:href="#DejaVuSans-2e"/>
      <use x="159.033203" xlink:href="#DejaVuSans-30"/>
     </g>
    </g>
   </g>
   <g id="xtick_14">
    <g id="line2d_16">
     <path d="M 530.039624 369.198893 
L 532.8737 371.653275 
" style="fill:none;stroke:#000000;stroke-linecap:square;stroke-width:0.8;"/>
    </g>
    <g id="text_16">
     <!-- 17.5 -->
     <g transform="translate(526.955751 392.996604)scale(0.1 -0.1)">
      <use xlink:href="#DejaVuSans-31"/>
      <use x="63.623047" xlink:href="#DejaVuSans-37"/>
      <use x="127.246094" xlink:href="#DejaVuSans-2e"/>
      <use x="159.033203" xlink:href="#DejaVuSans-35"/>
     </g>
    </g>
   </g>
   <g id="xtick_15">
    <g id="line2d_17">
     <path d="M 507.727065 375.639974 
L 510.561141 378.094356 
" style="fill:none;stroke:#000000;stroke-linecap:square;stroke-width:0.8;"/>
    </g>
    <g id="text_17">
     <!-- 20.0 -->
     <g transform="translate(504.643192 399.437685)scale(0.1 -0.1)">
      <use xlink:href="#DejaVuSans-32"/>
      <use x="63.623047" xlink:href="#DejaVuSans-30"/>
      <use x="127.246094" xlink:href="#DejaVuSans-2e"/>
      <use x="159.033203" xlink:href="#DejaVuSans-30"/>
     </g>
    </g>
   </g>
   <g id="xtick_16">
    <g id="line2d_18">
     <path d="M 485.414506 382.081055 
L 488.248581 384.535437 
" style="fill:none;stroke:#000000;stroke-linecap:square;stroke-width:0.8;"/>
    </g>
    <g id="text_18">
     <!-- 22.5 -->
     <g transform="translate(482.330632 405.878766)scale(0.1 -0.1)">
      <use xlink:href="#DejaVuSans-32"/>
      <use x="63.623047" xlink:href="#DejaVuSans-32"/>
      <use x="127.246094" xlink:href="#DejaVuSans-2e"/>
      <use x="159.033203" xlink:href="#DejaVuSans-35"/>
     </g>
    </g>
   </g>
   <g id="xtick_17">
    <g id="line2d_19">
     <path d="M 463.101946 388.522137 
L 465.936022 390.976518 
" style="fill:none;stroke:#000000;stroke-linecap:square;stroke-width:0.8;"/>
    </g>
    <g id="text_19">
     <!-- 25.0 -->
     <g transform="translate(460.018073 412.319847)scale(0.1 -0.1)">
      <use xlink:href="#DejaVuSans-32"/>
      <use x="63.623047" xlink:href="#DejaVuSans-35"/>
      <use x="127.246094" xlink:href="#DejaVuSans-2e"/>
      <use x="159.033203" xlink:href="#DejaVuSans-30"/>
     </g>
    </g>
   </g>
  </g>
  <g id="axis3d_3">
   <g id="line2d_20">
    <path d="M 655.562773 334.054318 
L 655.562773 180.655472 
" style="fill:none;stroke:#000000;stroke-linecap:square;stroke-width:0.8;"/>
   </g>
   <g id="text_20">
    <!-- Contraction rate [%] -->
    <g transform="translate(700.515983 314.120297)rotate(-90)scale(0.1 -0.1)">
     <defs>
      <path d="M 4122 4306 
L 4122 3641 
Q 3803 3938 3442 4084 
Q 3081 4231 2675 4231 
Q 1875 4231 1450 3742 
Q 1025 3253 1025 2328 
Q 1025 1406 1450 917 
Q 1875 428 2675 428 
Q 3081 428 3442 575 
Q 3803 722 4122 1019 
L 4122 359 
Q 3791 134 3420 21 
Q 3050 -91 2638 -91 
Q 1578 -91 968 557 
Q 359 1206 359 2328 
Q 359 3453 968 4101 
Q 1578 4750 2638 4750 
Q 3056 4750 3426 4639 
Q 3797 4528 4122 4306 
z
" id="DejaVuSans-43" transform="scale(0.015625)"/>
      <path d="M 3513 2113 
L 3513 0 
L 2938 0 
L 2938 2094 
Q 2938 2591 2744 2837 
Q 2550 3084 2163 3084 
Q 1697 3084 1428 2787 
Q 1159 2491 1159 1978 
L 1159 0 
L 581 0 
L 581 3500 
L 1159 3500 
L 1159 2956 
Q 1366 3272 1645 3428 
Q 1925 3584 2291 3584 
Q 2894 3584 3203 3211 
Q 3513 2838 3513 2113 
z
" id="DejaVuSans-6e" transform="scale(0.015625)"/>
      <path d="M 1172 4494 
L 1172 3500 
L 2356 3500 
L 2356 3053 
L 1172 3053 
L 1172 1153 
Q 1172 725 1289 603 
Q 1406 481 1766 481 
L 2356 481 
L 2356 0 
L 1766 0 
Q 1100 0 847 248 
Q 594 497 594 1153 
L 594 3053 
L 172 3053 
L 172 3500 
L 594 3500 
L 594 4494 
L 1172 4494 
z
" id="DejaVuSans-74" transform="scale(0.015625)"/>
      <path d="M 3122 3366 
L 3122 2828 
Q 2878 2963 2633 3030 
Q 2388 3097 2138 3097 
Q 1578 3097 1268 2742 
Q 959 2388 959 1747 
Q 959 1106 1268 751 
Q 1578 397 2138 397 
Q 2388 397 2633 464 
Q 2878 531 3122 666 
L 3122 134 
Q 2881 22 2623 -34 
Q 2366 -91 2075 -91 
Q 1284 -91 818 406 
Q 353 903 353 1747 
Q 353 2603 823 3093 
Q 1294 3584 2113 3584 
Q 2378 3584 2631 3529 
Q 2884 3475 3122 3366 
z
" id="DejaVuSans-63" transform="scale(0.015625)"/>
      <path d="M 603 3500 
L 1178 3500 
L 1178 0 
L 603 0 
L 603 3500 
z
M 603 4863 
L 1178 4863 
L 1178 4134 
L 603 4134 
L 603 4863 
z
" id="DejaVuSans-69" transform="scale(0.015625)"/>
      <path d="M 4653 2053 
Q 4381 2053 4226 1822 
Q 4072 1591 4072 1178 
Q 4072 772 4226 539 
Q 4381 306 4653 306 
Q 4919 306 5073 539 
Q 5228 772 5228 1178 
Q 5228 1588 5073 1820 
Q 4919 2053 4653 2053 
z
M 4653 2450 
Q 5147 2450 5437 2106 
Q 5728 1763 5728 1178 
Q 5728 594 5436 251 
Q 5144 -91 4653 -91 
Q 4153 -91 3862 251 
Q 3572 594 3572 1178 
Q 3572 1766 3864 2108 
Q 4156 2450 4653 2450 
z
M 1428 4353 
Q 1159 4353 1004 4120 
Q 850 3888 850 3481 
Q 850 3069 1003 2837 
Q 1156 2606 1428 2606 
Q 1700 2606 1854 2837 
Q 2009 3069 2009 3481 
Q 2009 3884 1853 4118 
Q 1697 4353 1428 4353 
z
M 4250 4750 
L 4750 4750 
L 1831 -91 
L 1331 -91 
L 4250 4750 
z
M 1428 4750 
Q 1922 4750 2215 4408 
Q 2509 4066 2509 3481 
Q 2509 2891 2217 2550 
Q 1925 2209 1428 2209 
Q 931 2209 642 2551 
Q 353 2894 353 3481 
Q 353 4063 643 4406 
Q 934 4750 1428 4750 
z
" id="DejaVuSans-25" transform="scale(0.015625)"/>
     </defs>
     <use xlink:href="#DejaVuSans-43"/>
     <use x="69.824219" xlink:href="#DejaVuSans-6f"/>
     <use x="131.005859" xlink:href="#DejaVuSans-6e"/>
     <use x="194.384766" xlink:href="#DejaVuSans-74"/>
     <use x="233.59375" xlink:href="#DejaVuSans-72"/>
     <use x="274.707031" xlink:href="#DejaVuSans-61"/>
     <use x="335.986328" xlink:href="#DejaVuSans-63"/>
     <use x="390.966797" xlink:href="#DejaVuSans-74"/>
     <use x="430.175781" xlink:href="#DejaVuSans-69"/>
     <use x="457.958984" xlink:href="#DejaVuSans-6f"/>
     <use x="519.140625" xlink:href="#DejaVuSans-6e"/>
     <use x="582.519531" xlink:href="#DejaVuSans-20"/>
     <use x="614.306641" xlink:href="#DejaVuSans-72"/>
     <use x="655.419922" xlink:href="#DejaVuSans-61"/>
     <use x="716.699219" xlink:href="#DejaVuSans-74"/>
     <use x="755.908203" xlink:href="#DejaVuSans-65"/>
     <use x="817.431641" xlink:href="#DejaVuSans-20"/>
     <use x="849.21875" xlink:href="#DejaVuSans-5b"/>
     <use x="888.232422" xlink:href="#DejaVuSans-25"/>
     <use x="983.251953" xlink:href="#DejaVuSans-5d"/>
    </g>
   </g>
   <g id="Line3DCollection_3">
    <path d="M 655.562773 314.023935 
L 537.476286 211.758037 
L 332.944492 270.801281 
" style="fill:none;stroke:#b0b0b0;stroke-width:0.8;"/>
    <path d="M 655.562773 291.055241 
L 537.476286 188.789344 
L 332.944492 247.832587 
" style="fill:none;stroke:#b0b0b0;stroke-width:0.8;"/>
    <path d="M 655.562773 268.086548 
L 537.476286 165.820651 
L 332.944492 224.863894 
" style="fill:none;stroke:#b0b0b0;stroke-width:0.8;"/>
    <path d="M 655.562773 245.117855 
L 537.476286 142.851958 
L 332.944492 201.895201 
" style="fill:none;stroke:#b0b0b0;stroke-width:0.8;"/>
    <path d="M 655.562773 222.149162 
L 537.476286 119.883264 
L 332.944492 178.926508 
" style="fill:none;stroke:#b0b0b0;stroke-width:0.8;"/>
    <path d="M 655.562773 199.180469 
L 537.476286 96.914571 
L 332.944492 155.957815 
" style="fill:none;stroke:#b0b0b0;stroke-width:0.8;"/>
   </g>
   <g id="xtick_18">
    <g id="line2d_21">
     <path d="M 654.618081 313.205807 
L 657.452157 315.660189 
" style="fill:none;stroke:#000000;stroke-linecap:square;stroke-width:0.8;"/>
    </g>
    <g id="text_21">
     <!-- 0.74 -->
     <g transform="translate(663.839125 324.222707)scale(0.1 -0.1)">
      <use xlink:href="#DejaVuSans-30"/>
      <use x="63.623047" xlink:href="#DejaVuSans-2e"/>
      <use x="95.410156" xlink:href="#DejaVuSans-37"/>
      <use x="159.033203" xlink:href="#DejaVuSans-34"/>
     </g>
    </g>
   </g>
   <g id="xtick_19">
    <g id="line2d_22">
     <path d="M 654.618081 290.237114 
L 657.452157 292.691496 
" style="fill:none;stroke:#000000;stroke-linecap:square;stroke-width:0.8;"/>
    </g>
    <g id="text_22">
     <!-- 0.76 -->
     <g transform="translate(663.839125 301.254014)scale(0.1 -0.1)">
      <use xlink:href="#DejaVuSans-30"/>
      <use x="63.623047" xlink:href="#DejaVuSans-2e"/>
      <use x="95.410156" xlink:href="#DejaVuSans-37"/>
      <use x="159.033203" xlink:href="#DejaVuSans-36"/>
     </g>
    </g>
   </g>
   <g id="xtick_20">
    <g id="line2d_23">
     <path d="M 654.618081 267.268421 
L 657.452157 269.722803 
" style="fill:none;stroke:#000000;stroke-linecap:square;stroke-width:0.8;"/>
    </g>
    <g id="text_23">
     <!-- 0.78 -->
     <g transform="translate(663.839125 278.285321)scale(0.1 -0.1)">
      <defs>
       <path d="M 2034 2216 
Q 1584 2216 1326 1975 
Q 1069 1734 1069 1313 
Q 1069 891 1326 650 
Q 1584 409 2034 409 
Q 2484 409 2743 651 
Q 3003 894 3003 1313 
Q 3003 1734 2745 1975 
Q 2488 2216 2034 2216 
z
M 1403 2484 
Q 997 2584 770 2862 
Q 544 3141 544 3541 
Q 544 4100 942 4425 
Q 1341 4750 2034 4750 
Q 2731 4750 3128 4425 
Q 3525 4100 3525 3541 
Q 3525 3141 3298 2862 
Q 3072 2584 2669 2484 
Q 3125 2378 3379 2068 
Q 3634 1759 3634 1313 
Q 3634 634 3220 271 
Q 2806 -91 2034 -91 
Q 1263 -91 848 271 
Q 434 634 434 1313 
Q 434 1759 690 2068 
Q 947 2378 1403 2484 
z
M 1172 3481 
Q 1172 3119 1398 2916 
Q 1625 2713 2034 2713 
Q 2441 2713 2670 2916 
Q 2900 3119 2900 3481 
Q 2900 3844 2670 4047 
Q 2441 4250 2034 4250 
Q 1625 4250 1398 4047 
Q 1172 3844 1172 3481 
z
" id="DejaVuSans-38" transform="scale(0.015625)"/>
      </defs>
      <use xlink:href="#DejaVuSans-30"/>
      <use x="63.623047" xlink:href="#DejaVuSans-2e"/>
      <use x="95.410156" xlink:href="#DejaVuSans-37"/>
      <use x="159.033203" xlink:href="#DejaVuSans-38"/>
     </g>
    </g>
   </g>
   <g id="xtick_21">
    <g id="line2d_24">
     <path d="M 654.618081 244.299728 
L 657.452157 246.754109 
" style="fill:none;stroke:#000000;stroke-linecap:square;stroke-width:0.8;"/>
    </g>
    <g id="text_24">
     <!-- 0.80 -->
     <g transform="translate(663.839125 255.316627)scale(0.1 -0.1)">
      <use xlink:href="#DejaVuSans-30"/>
      <use x="63.623047" xlink:href="#DejaVuSans-2e"/>
      <use x="95.410156" xlink:href="#DejaVuSans-38"/>
      <use x="159.033203" xlink:href="#DejaVuSans-30"/>
     </g>
    </g>
   </g>
   <g id="xtick_22">
    <g id="line2d_25">
     <path d="M 654.618081 221.331035 
L 657.452157 223.785416 
" style="fill:none;stroke:#000000;stroke-linecap:square;stroke-width:0.8;"/>
    </g>
    <g id="text_25">
     <!-- 0.82 -->
     <g transform="translate(663.839125 232.347934)scale(0.1 -0.1)">
      <use xlink:href="#DejaVuSans-30"/>
      <use x="63.623047" xlink:href="#DejaVuSans-2e"/>
      <use x="95.410156" xlink:href="#DejaVuSans-38"/>
      <use x="159.033203" xlink:href="#DejaVuSans-32"/>
     </g>
    </g>
   </g>
   <g id="xtick_23">
    <g id="line2d_26">
     <path d="M 654.618081 198.362341 
L 657.452157 200.816723 
" style="fill:none;stroke:#000000;stroke-linecap:square;stroke-width:0.8;"/>
    </g>
    <g id="text_26">
     <!-- 0.84 -->
     <g transform="translate(663.839125 209.379241)scale(0.1 -0.1)">
      <use xlink:href="#DejaVuSans-30"/>
      <use x="63.623047" xlink:href="#DejaVuSans-2e"/>
      <use x="95.410156" xlink:href="#DejaVuSans-38"/>
      <use x="159.033203" xlink:href="#DejaVuSans-34"/>
     </g>
    </g>
   </g>
  </g>
  <g id="axes_1">
   <g id="Line3DCollection_4">
    <path clip-path="url(#pd79151a17b)" d="M 635.032519 319.460947 
L 628.162032 303.062229 
L 621.291546 286.895056 
L 614.421059 270.962569 
L 607.550573 255.267266 
L 600.680086 239.811025 
L 593.8096 224.595125 
L 586.939113 209.62027 
L 580.068627 194.88662 
L 573.19814 180.393813 
L 566.327654 166.140997 
L 559.457167 152.12686 
L 552.586681 138.349661 
L 545.716194 124.807256 
L 538.845708 111.497134 
L 531.975221 98.416446 
" style="fill:none;stroke:#1f77b4;stroke-width:1.5;"/>
    <path clip-path="url(#pd79151a17b)" d="M 623.132487 324.428713 
L 616.262001 308.049021 
L 609.391514 291.900452 
L 602.521028 275.986141 
L 595.650541 260.308583 
L 588.780055 244.869651 
L 581.909568 229.670623 
L 575.039082 214.712201 
L 568.168595 199.994545 
L 561.298109 185.517292 
L 554.427622 171.279595 
L 547.557136 157.280142 
L 540.686649 143.517194 
L 533.816163 129.988614 
L 526.945676 116.691894 
L 520.07519 103.62419 
" style="fill:none;stroke:#1f77b4;stroke-width:1.5;"/>
    <path clip-path="url(#pd79151a17b)" d="M 611.232456 328.267925 
L 604.361969 311.893248 
L 597.491483 295.749583 
L 590.620996 279.840064 
L 583.75051 264.167183 
L 576.880023 248.732814 
L 570.009537 233.538232 
L 563.13905 218.584143 
L 556.268564 203.870702 
L 549.398077 189.39755 
L 542.527591 175.163837 
L 535.657104 161.168255 
L 528.786617 147.409064 
L 521.916131 133.884128 
L 515.045644 120.590941 
L 508.175158 107.526659 
" style="fill:none;stroke:#1f77b4;stroke-width:1.5;"/>
    <path clip-path="url(#pd79151a17b)" d="M 599.332424 331.809654 
L 592.461937 315.436298 
L 585.591451 299.293926 
L 578.720964 283.38567 
L 571.850478 267.714022 
L 564.979991 252.280855 
L 558.109505 237.087446 
L 551.239018 222.134498 
L 544.368532 207.422169 
L 537.498045 192.950098 
L 530.627559 178.717436 
L 523.757072 164.722873 
L 516.886586 150.964673 
L 510.016099 137.440697 
L 503.145613 124.148441 
L 496.275126 111.085062 
" style="fill:none;stroke:#1f77b4;stroke-width:1.5;"/>
    <path clip-path="url(#pd79151a17b)" d="M 587.432392 335.272966 
L 580.561906 318.899959 
L 573.691419 302.757928 
L 566.820933 286.850004 
L 559.950446 271.178681 
L 553.07996 255.745832 
L 546.209473 240.552732 
L 539.338987 225.600085 
L 532.4685 210.888048 
L 525.598014 196.416262 
L 518.727527 182.183877 
L 511.857041 168.189584 
L 504.986554 154.431644 
L 498.116068 140.907922 
L 491.245581 127.615911 
L 484.375095 114.552769 
" style="fill:none;stroke:#1f77b4;stroke-width:1.5;"/>
    <path clip-path="url(#pd79151a17b)" d="M 575.53236 338.715608 
L 568.661874 322.342693 
L 561.791387 306.200751 
L 554.920901 290.292916 
L 548.050414 274.621678 
L 541.179928 259.188913 
L 534.309441 243.995894 
L 527.438955 229.043326 
L 520.568468 214.331367 
L 513.697982 199.859656 
L 506.827495 185.627344 
L 499.957009 171.633122 
L 493.086522 157.875251 
L 486.216036 144.351595 
L 479.345549 131.059649 
L 472.475063 117.99657 
" style="fill:none;stroke:#1f77b4;stroke-width:1.5;"/>
    <path clip-path="url(#pd79151a17b)" d="M 563.632329 342.152802 
L 556.761842 325.779911 
L 549.891356 309.637993 
L 543.020869 293.73018 
L 536.150383 278.058966 
L 529.279896 262.626222 
L 522.40941 247.433225 
L 515.538923 232.480678 
L 508.668437 217.768739 
L 501.79795 203.297048 
L 494.927464 189.064755 
L 488.056977 175.070551 
L 481.186491 161.312699 
L 474.316004 147.789061 
L 467.445518 134.497132 
L 460.575031 121.434069 
" style="fill:none;stroke:#1f77b4;stroke-width:1.5;"/>
    <path clip-path="url(#pd79151a17b)" d="M 551.732297 345.588559 
L 544.861811 329.215675 
L 537.991324 313.073763 
L 531.120838 297.165956 
L 524.250351 281.494748 
L 517.379865 266.06201 
L 510.509378 250.869018 
L 503.638892 235.916477 
L 496.768405 221.204543 
L 489.897919 206.732858 
L 483.027432 192.50057 
L 476.156946 178.506371 
L 469.286459 164.748523 
L 462.415973 151.22489 
L 455.545486 137.932965 
L 448.675 124.869907 
" style="fill:none;stroke:#1f77b4;stroke-width:1.5;"/>
    <path clip-path="url(#pd79151a17b)" d="M 539.832265 349.023938 
L 532.961779 332.651055 
L 526.091292 316.509145 
L 519.220806 300.60134 
L 512.350319 284.930133 
L 505.479833 269.497397 
L 498.609346 254.304407 
L 491.73886 239.351867 
L 484.868373 224.639935 
L 477.997887 210.16825 
L 471.1274 195.935963 
L 464.256914 181.941766 
L 457.386427 168.18392 
L 450.515941 154.660287 
L 443.645454 141.368364 
L 436.774968 128.305307 
" style="fill:none;stroke:#1f77b4;stroke-width:1.5;"/>
    <path clip-path="url(#pd79151a17b)" d="M 527.932234 352.459217 
L 521.061747 336.086335 
L 514.191261 319.944425 
L 507.320774 304.03662 
L 500.450288 288.365414 
L 493.579801 272.932678 
L 486.709315 257.739688 
L 479.838828 242.787149 
L 472.968342 228.075217 
L 466.097855 213.603533 
L 459.227369 199.371246 
L 452.356882 185.377049 
L 445.486396 171.619203 
L 438.615909 158.095571 
L 431.745423 144.803649 
L 424.874936 131.740591 
" style="fill:none;stroke:#1f77b4;stroke-width:1.5;"/>
    <path clip-path="url(#pd79151a17b)" d="M 516.032202 355.894469 
L 509.161715 339.521587 
L 502.291229 323.379678 
L 495.420742 307.471873 
L 488.550256 291.800667 
L 481.679769 276.367931 
L 474.809283 261.174941 
L 467.938796 246.222402 
L 461.06831 231.51047 
L 454.197823 217.038786 
L 447.327337 202.8065 
L 440.45685 188.812303 
L 433.586364 175.054457 
L 426.715877 161.530825 
L 419.845391 148.238903 
L 412.974904 135.175846 
" style="fill:none;stroke:#1f77b4;stroke-width:1.5;"/>
    <path clip-path="url(#pd79151a17b)" d="M 504.13217 359.329715 
L 497.261684 342.956833 
L 490.391197 326.814924 
L 483.520711 310.907119 
L 476.650224 295.235913 
L 469.779738 279.803177 
L 462.909251 264.610187 
L 456.038765 249.657648 
L 449.168278 234.945716 
L 442.297792 220.474032 
L 435.427305 206.241746 
L 428.556819 192.247549 
L 421.686332 178.489703 
L 414.815846 164.966071 
L 407.945359 151.674149 
L 401.074873 138.611092 
" style="fill:none;stroke:#1f77b4;stroke-width:1.5;"/>
    <path clip-path="url(#pd79151a17b)" d="M 492.232139 362.764959 
L 485.361652 346.392077 
L 478.491166 330.250167 
L 471.620679 314.342363 
L 464.750193 298.671157 
L 457.879706 283.238421 
L 451.00922 268.045431 
L 444.138733 253.092892 
L 437.268247 238.38096 
L 430.39776 223.909276 
L 423.527274 209.67699 
L 416.656787 195.682793 
L 409.786301 181.924947 
L 402.915814 168.401315 
L 396.045328 155.109393 
L 389.174841 142.046336 
" style="fill:none;stroke:#1f77b4;stroke-width:1.5;"/>
    <path clip-path="url(#pd79151a17b)" d="M 480.332107 366.200203 
L 473.46162 349.82732 
L 466.591134 333.685411 
L 459.720647 317.777607 
L 452.850161 302.1064 
L 445.979674 286.673664 
L 439.109188 271.480675 
L 432.238701 256.528135 
L 425.368215 241.816204 
L 418.497728 227.34452 
L 411.627242 213.112234 
L 404.756755 199.118037 
L 397.886269 185.360191 
L 391.015782 171.836559 
L 384.145296 158.544636 
L 377.274809 145.481579 
" style="fill:none;stroke:#1f77b4;stroke-width:1.5;"/>
    <path clip-path="url(#pd79151a17b)" d="M 468.432075 369.635446 
L 461.561589 353.262564 
L 454.691102 337.120654 
L 447.820616 321.21285 
L 440.950129 305.541643 
L 434.079643 290.108907 
L 427.209156 274.915918 
L 420.33867 259.963379 
L 413.468183 245.251447 
L 406.597697 230.779763 
L 399.72721 216.547477 
L 392.856724 202.55328 
L 385.986237 188.795434 
L 379.115751 175.271802 
L 372.245264 161.979879 
L 365.374778 148.916823 
" style="fill:none;stroke:#1f77b4;stroke-width:1.5;"/>
    <path clip-path="url(#pd79151a17b)" d="M 456.532043 373.070689 
L 449.661557 356.697807 
L 442.79107 340.555897 
L 435.920584 324.648093 
L 429.050097 308.976887 
L 422.179611 293.544151 
L 415.309124 278.351161 
L 408.438638 263.398622 
L 401.568151 248.68669 
L 394.697665 234.215006 
L 387.827178 219.98272 
L 380.956692 205.988523 
L 374.086205 192.230677 
L 367.215719 178.707045 
L 360.345232 165.415123 
L 353.474746 152.352066 
" style="fill:none;stroke:#1f77b4;stroke-width:1.5;"/>
    <path clip-path="url(#pd79151a17b)" d="M 635.032519 319.460947 
L 623.132487 324.428713 
L 611.232456 328.267925 
L 599.332424 331.809654 
L 587.432392 335.272966 
L 575.53236 338.715608 
L 563.632329 342.152802 
L 551.732297 345.588559 
L 539.832265 349.023938 
L 527.932234 352.459217 
L 516.032202 355.894469 
L 504.13217 359.329715 
L 492.232139 362.764959 
L 480.332107 366.200203 
L 468.432075 369.635446 
L 456.532043 373.070689 
" style="fill:none;stroke:#1f77b4;stroke-width:1.5;"/>
    <path clip-path="url(#pd79151a17b)" d="M 628.162032 303.062229 
L 616.262001 308.049021 
L 604.361969 311.893248 
L 592.461937 315.436298 
L 580.561906 318.899959 
L 568.661874 322.342693 
L 556.761842 325.779911 
L 544.861811 329.215675 
L 532.961779 332.651055 
L 521.061747 336.086335 
L 509.161715 339.521587 
L 497.261684 342.956833 
L 485.361652 346.392077 
L 473.46162 349.82732 
L 461.561589 353.262564 
L 449.661557 356.697807 
" style="fill:none;stroke:#1f77b4;stroke-width:1.5;"/>
    <path clip-path="url(#pd79151a17b)" d="M 621.291546 286.895056 
L 609.391514 291.900452 
L 597.491483 295.749583 
L 585.591451 299.293926 
L 573.691419 302.757928 
L 561.791387 306.200751 
L 549.891356 309.637993 
L 537.991324 313.073763 
L 526.091292 316.509145 
L 514.191261 319.944425 
L 502.291229 323.379678 
L 490.391197 326.814924 
L 478.491166 330.250167 
L 466.591134 333.685411 
L 454.691102 337.120654 
L 442.79107 340.555897 
" style="fill:none;stroke:#1f77b4;stroke-width:1.5;"/>
    <path clip-path="url(#pd79151a17b)" d="M 614.421059 270.962569 
L 602.521028 275.986141 
L 590.620996 279.840064 
L 578.720964 283.38567 
L 566.820933 286.850004 
L 554.920901 290.292916 
L 543.020869 293.73018 
L 531.120838 297.165956 
L 519.220806 300.60134 
L 507.320774 304.03662 
L 495.420742 307.471873 
L 483.520711 310.907119 
L 471.620679 314.342363 
L 459.720647 317.777607 
L 447.820616 321.21285 
L 435.920584 324.648093 
" style="fill:none;stroke:#1f77b4;stroke-width:1.5;"/>
    <path clip-path="url(#pd79151a17b)" d="M 607.550573 255.267266 
L 595.650541 260.308583 
L 583.75051 264.167183 
L 571.850478 267.714022 
L 559.950446 271.178681 
L 548.050414 274.621678 
L 536.150383 278.058966 
L 524.250351 281.494748 
L 512.350319 284.930133 
L 500.450288 288.365414 
L 488.550256 291.800667 
L 476.650224 295.235913 
L 464.750193 298.671157 
L 452.850161 302.1064 
L 440.950129 305.541643 
L 429.050097 308.976887 
" style="fill:none;stroke:#1f77b4;stroke-width:1.5;"/>
    <path clip-path="url(#pd79151a17b)" d="M 600.680086 239.811025 
L 588.780055 244.869651 
L 576.880023 248.732814 
L 564.979991 252.280855 
L 553.07996 255.745832 
L 541.179928 259.188913 
L 529.279896 262.626222 
L 517.379865 266.06201 
L 505.479833 269.497397 
L 493.579801 272.932678 
L 481.679769 276.367931 
L 469.779738 279.803177 
L 457.879706 283.238421 
L 445.979674 286.673664 
L 434.079643 290.108907 
L 422.179611 293.544151 
" style="fill:none;stroke:#1f77b4;stroke-width:1.5;"/>
    <path clip-path="url(#pd79151a17b)" d="M 593.8096 224.595125 
L 581.909568 229.670623 
L 570.009537 233.538232 
L 558.109505 237.087446 
L 546.209473 240.552732 
L 534.309441 243.995894 
L 522.40941 247.433225 
L 510.509378 250.869018 
L 498.609346 254.304407 
L 486.709315 257.739688 
L 474.809283 261.174941 
L 462.909251 264.610187 
L 451.00922 268.045431 
L 439.109188 271.480675 
L 427.209156 274.915918 
L 415.309124 278.351161 
" style="fill:none;stroke:#1f77b4;stroke-width:1.5;"/>
    <path clip-path="url(#pd79151a17b)" d="M 586.939113 209.62027 
L 575.039082 214.712201 
L 563.13905 218.584143 
L 551.239018 222.134498 
L 539.338987 225.600085 
L 527.438955 229.043326 
L 515.538923 232.480678 
L 503.638892 235.916477 
L 491.73886 239.351867 
L 479.838828 242.787149 
L 467.938796 246.222402 
L 456.038765 249.657648 
L 444.138733 253.092892 
L 432.238701 256.528135 
L 420.33867 259.963379 
L 408.438638 263.398622 
" style="fill:none;stroke:#1f77b4;stroke-width:1.5;"/>
    <path clip-path="url(#pd79151a17b)" d="M 580.068627 194.88662 
L 568.168595 199.994545 
L 556.268564 203.870702 
L 544.368532 207.422169 
L 532.4685 210.888048 
L 520.568468 214.331367 
L 508.668437 217.768739 
L 496.768405 221.204543 
L 484.868373 224.639935 
L 472.968342 228.075217 
L 461.06831 231.51047 
L 449.168278 234.945716 
L 437.268247 238.38096 
L 425.368215 241.816204 
L 413.468183 245.251447 
L 401.568151 248.68669 
" style="fill:none;stroke:#1f77b4;stroke-width:1.5;"/>
    <path clip-path="url(#pd79151a17b)" d="M 573.19814 180.393813 
L 561.298109 185.517292 
L 549.398077 189.39755 
L 537.498045 192.950098 
L 525.598014 196.416262 
L 513.697982 199.859656 
L 501.79795 203.297048 
L 489.897919 206.732858 
L 477.997887 210.16825 
L 466.097855 213.603533 
L 454.197823 217.038786 
L 442.297792 220.474032 
L 430.39776 223.909276 
L 418.497728 227.34452 
L 406.597697 230.779763 
L 394.697665 234.215006 
" style="fill:none;stroke:#1f77b4;stroke-width:1.5;"/>
    <path clip-path="url(#pd79151a17b)" d="M 566.327654 166.140997 
L 554.427622 171.279595 
L 542.527591 175.163837 
L 530.627559 178.717436 
L 518.727527 182.183877 
L 506.827495 185.627344 
L 494.927464 189.064755 
L 483.027432 192.50057 
L 471.1274 195.935963 
L 459.227369 199.371246 
L 447.327337 202.8065 
L 435.427305 206.241746 
L 423.527274 209.67699 
L 411.627242 213.112234 
L 399.72721 216.547477 
L 387.827178 219.98272 
" style="fill:none;stroke:#1f77b4;stroke-width:1.5;"/>
    <path clip-path="url(#pd79151a17b)" d="M 559.457167 152.12686 
L 547.557136 157.280142 
L 535.657104 161.168255 
L 523.757072 164.722873 
L 511.857041 168.189584 
L 499.957009 171.633122 
L 488.056977 175.070551 
L 476.156946 178.506371 
L 464.256914 181.941766 
L 452.356882 185.377049 
L 440.45685 188.812303 
L 428.556819 192.247549 
L 416.656787 195.682793 
L 404.756755 199.118037 
L 392.856724 202.55328 
L 380.956692 205.988523 
" style="fill:none;stroke:#1f77b4;stroke-width:1.5;"/>
    <path clip-path="url(#pd79151a17b)" d="M 552.586681 138.349661 
L 540.686649 143.517194 
L 528.786617 147.409064 
L 516.886586 150.964673 
L 504.986554 154.431644 
L 493.086522 157.875251 
L 481.186491 161.312699 
L 469.286459 164.748523 
L 457.386427 168.18392 
L 445.486396 171.619203 
L 433.586364 175.054457 
L 421.686332 178.489703 
L 409.786301 181.924947 
L 397.886269 185.360191 
L 385.986237 188.795434 
L 374.086205 192.230677 
" style="fill:none;stroke:#1f77b4;stroke-width:1.5;"/>
    <path clip-path="url(#pd79151a17b)" d="M 545.716194 124.807256 
L 533.816163 129.988614 
L 521.916131 133.884128 
L 510.016099 137.440697 
L 498.116068 140.907922 
L 486.216036 144.351595 
L 474.316004 147.789061 
L 462.415973 151.22489 
L 450.515941 154.660287 
L 438.615909 158.095571 
L 426.715877 161.530825 
L 414.815846 164.966071 
L 402.915814 168.401315 
L 391.015782 171.836559 
L 379.115751 175.271802 
L 367.215719 178.707045 
" style="fill:none;stroke:#1f77b4;stroke-width:1.5;"/>
    <path clip-path="url(#pd79151a17b)" d="M 538.845708 111.497134 
L 526.945676 116.691894 
L 515.045644 120.590941 
L 503.145613 124.148441 
L 491.245581 127.615911 
L 479.345549 131.059649 
L 467.445518 134.497132 
L 455.545486 137.932965 
L 443.645454 141.368364 
L 431.745423 144.803649 
L 419.845391 148.238903 
L 407.945359 151.674149 
L 396.045328 155.109393 
L 384.145296 158.544636 
L 372.245264 161.979879 
L 360.345232 165.415123 
" style="fill:none;stroke:#1f77b4;stroke-width:1.5;"/>
    <path clip-path="url(#pd79151a17b)" d="M 531.975221 98.416446 
L 520.07519 103.62419 
L 508.175158 107.526659 
L 496.275126 111.085062 
L 484.375095 114.552769 
L 472.475063 117.99657 
L 460.575031 121.434069 
L 448.675 124.869907 
L 436.774968 128.305307 
L 424.874936 131.740591 
L 412.974904 135.175846 
L 401.074873 138.611092 
L 389.174841 142.046336 
L 377.274809 145.481579 
L 365.374778 148.916823 
L 353.474746 152.352066 
" style="fill:none;stroke:#1f77b4;stroke-width:1.5;"/>
   </g>
  </g>
 </g>
 <defs>
  <clipPath id="pd79151a17b">
   <rect height="367.0128" width="367.0128" x="305.7876" y="57.1968"/>
  </clipPath>
 </defs>
</svg>
